<svg width="445" height="445" viewBox="0 0 445 445" fill="none" xmlns="http://www.w3.org/2000/svg">
<circle cx="222.5" cy="222.5" r="222.5" fill="#4195D1"/>
<path d="M124.999 169.6C124.999 167.16 126.032 164.82 127.87 163.095C129.707 161.369 132.2 160.4 134.799 160.4H271.999C274.598 160.4 277.091 161.369 278.929 163.095C280.767 164.82 281.799 167.16 281.799 169.6C281.799 172.04 280.767 174.38 278.929 176.105C277.091 177.831 274.598 178.8 271.999 178.8H134.799C132.2 178.8 129.707 177.831 127.87 176.105C126.032 174.38 124.999 172.04 124.999 169.6ZM232.799 215.6C230.2 215.6 227.707 216.569 225.87 218.295C224.032 220.02 222.999 222.36 222.999 224.8C222.999 227.24 224.032 229.58 225.87 231.305C227.707 233.031 230.2 234 232.799 234H271.999C274.598 234 277.091 233.031 278.929 231.305C280.767 229.58 281.799 227.24 281.799 224.8C281.799 222.36 280.767 220.02 278.929 218.295C277.091 216.569 274.598 215.6 271.999 215.6H232.799ZM222.999 280C222.999 277.56 224.032 275.22 225.87 273.495C227.707 271.769 230.2 270.8 232.799 270.8H271.999C274.598 270.8 277.091 271.769 278.929 273.495C280.767 275.22 281.799 277.56 281.799 280C281.799 282.44 280.767 284.78 278.929 286.505C277.091 288.231 274.598 289.2 271.999 289.2H232.799C230.2 289.2 227.707 288.231 225.87 286.505C224.032 284.78 222.999 282.44 222.999 280ZM66.1992 142C66.1992 132.24 70.3292 122.88 77.6806 115.978C85.0321 109.077 95.0027 105.2 105.399 105.2H301.399C311.796 105.2 321.766 109.077 329.118 115.978C336.469 122.88 340.599 132.24 340.599 142V160.4C350.996 160.4 360.966 164.277 368.318 171.178C375.669 178.08 379.799 187.44 379.799 197.2V298.4C379.799 310.6 374.637 322.3 365.447 330.927C356.258 339.554 343.795 344.4 330.799 344.4H115.199C102.204 344.4 89.7403 339.554 80.551 330.927C71.3617 322.3 66.1992 310.6 66.1992 298.4V142ZM320.999 142C320.999 137.12 318.934 132.44 315.258 128.989C311.583 125.539 306.597 123.6 301.399 123.6H105.399C100.201 123.6 95.2156 125.539 91.5399 128.989C87.8642 132.44 85.7992 137.12 85.7992 142V298.4C85.7992 305.72 88.8967 312.74 94.4103 317.916C99.9238 323.092 107.402 326 115.199 326H330.799C338.597 326 346.075 323.092 351.588 317.916C357.102 312.74 360.199 305.72 360.199 298.4V197.2C360.199 192.32 358.134 187.64 354.459 184.189C350.783 180.739 345.797 178.8 340.599 178.8V298.4C340.599 300.84 339.567 303.18 337.729 304.905C335.891 306.631 333.398 307.6 330.799 307.6C328.2 307.6 325.707 306.631 323.87 304.905C322.032 303.18 320.999 300.84 320.999 298.4V142Z" fill="white"/>
<path d="M201.921 278.52C196.804 269.582 188.813 262.619 179.236 258.749C183.999 255.195 187.517 250.239 189.292 244.584C191.067 238.929 191.009 232.862 189.127 227.241C187.244 221.621 183.632 216.732 178.802 213.268C173.973 209.804 168.17 207.94 162.217 207.94C156.264 207.94 150.461 209.804 145.632 213.268C140.802 216.732 137.19 221.621 135.308 227.241C133.425 232.862 133.367 238.929 135.142 244.584C136.917 250.239 140.435 255.195 145.198 258.749C135.621 262.619 127.63 269.582 122.513 278.52C122.196 279.027 121.985 279.593 121.892 280.183C121.799 280.773 121.826 281.376 121.972 281.956C122.118 282.535 122.379 283.08 122.741 283.557C123.102 284.034 123.556 284.434 124.076 284.733C124.596 285.032 125.171 285.223 125.767 285.297C126.363 285.37 126.967 285.324 127.545 285.16C128.122 284.996 128.66 284.718 129.128 284.343C129.595 283.968 129.982 283.503 130.265 282.977C137.028 271.344 148.971 264.406 162.217 264.406C175.463 264.406 187.406 271.348 194.169 282.977C194.783 283.959 195.757 284.666 196.885 284.947C198.012 285.227 199.206 285.061 200.213 284.482C201.219 283.903 201.96 282.958 202.279 281.845C202.598 280.732 202.469 279.54 201.921 278.52ZM142.809 236.179C142.809 232.359 143.948 228.625 146.08 225.449C148.213 222.272 151.244 219.797 154.79 218.335C158.336 216.873 162.239 216.491 166.003 217.236C169.768 217.981 173.226 219.821 175.94 222.522C178.655 225.223 180.503 228.664 181.252 232.411C182.001 236.157 181.616 240.04 180.147 243.57C178.679 247.099 176.191 250.115 172.999 252.237C169.808 254.359 166.056 255.492 162.217 255.492C157.072 255.486 152.139 253.449 148.5 249.829C144.862 246.208 142.815 241.299 142.809 236.179Z" fill="#E1D1C8"/>
</svg>
